<svg xmlns="http://www.w3.org/2000/svg" viewBox="0 0 164.47 258.38"><defs><style>.cls-1{fill:#222;}</style></defs><g id="레이어_2" data-name="레이어 2"><g id="레이어_1-2" data-name="레이어 1"><path class="cls-1" d="M148.23,119.77c-9,0-16.24,7.92-16.24,16.89,0-9-7.27-20.12-16.24-20.12S99.5,124.46,99.5,133.43c0-9-7.27-20.45-16.24-20.45A16.25,16.25,0,0,0,67,129.23V73.63A16.24,16.24,0,0,0,50.78,57.39c-9,0-14.63,7.27-14.63,16.24v84.2c-6.5,3.82-16.37,12.12-16.37,27.4,0,13.31,7.1,25.76,15.16,35.69.54.66,1.09,1.29,1.66,1.9h0c1.8,3.29,6.3,9.1,8.15,12.36a51.44,51.44,0,0,1,4.15,10.47c1.08,3.48,2.25,6.94,3.38,10.41a16.21,16.21,0,0,0,.75,2.32h96.16L155.66,237q1.84-5.86,3.67-11.73c1.33-4.26,2.71-8.54,3.7-12.9a40,40,0,0,0,1.44-11.18v-61C164.47,131.25,157.2,119.77,148.23,119.77Z"/><path class="cls-1" d="M53.32,30.39c0,2.49-1.23,4.54-2.73,4.54s-2.72-2-2.72-4.54V4.54C47.87,2,49.1,0,50.59,0s2.73,2,2.73,4.54Z"/><path class="cls-1" d="M23.32,42.26c1.91,1.61,2.69,3.86,1.73,5s-3.32.78-5.23-.83L2.14,33.05c-1.91-1.6-2.69-3.85-1.73-5s3.32-.77,5.23.83Z"/><path class="cls-1" d="M77.87,42.26c-1.91,1.61-2.69,3.86-1.72,5s3.31.78,5.22-.83L99.05,33.05c1.91-1.6,2.69-3.85,1.73-5s-3.31-.77-5.22.83Z"/></g></g></svg>