<svg xmlns="http://www.w3.org/2000/svg" viewBox="0 0 133.33 141.02"><defs><style>.cls-1{fill:#231815;}</style></defs><g id="레이어_2" data-name="레이어 2"><g id="격리_모드" data-name="격리 모드"><path class="cls-1" d="M66.67,0C29.85,0,0,27.61,0,61.67c0,25.15,10.53,37.16,25,48.1l.07,0v29.52a1.7,1.7,0,0,0,2.71,1.36L53,121.9l.54.24a72.4,72.4,0,0,0,13.11,1.19c36.82,0,66.66-27.61,66.66-61.66S103.49,0,66.67,0M44.32,77.29c6.54,0,12.12-3.91,13.8-10h9.67C65.43,79,56.38,86.59,44.32,86.59c-14,0-25.12-10.45-25.12-25s11.11-25,25.12-25c12.18,0,21.29,7.78,23.54,19.61H58.22C56.76,49.78,51,45.77,44.32,45.77c-9.42,0-15.69,6.72-15.69,15.83A15.48,15.48,0,0,0,44.32,77.29M108,85.63H99.15v-20c0-4.6-2.68-7.07-6.8-7.07-4.6,0-7.55,2.81-7.55,8.51V85.63H75.94V36.76H84.8V55.14c2.13-3.23,5.56-4.8,10.23-4.8a12.15,12.15,0,0,1,9.27,3.77c2.47,2.54,3.71,6,3.71,10.44Z"/></g></g></svg>