<svg xmlns="http://www.w3.org/2000/svg" viewBox="0 0 103.71 102.98"><defs><style>.cls-1{fill:#ea5504;fill-rule:evenodd;}.cls-2{fill:#595757;}</style></defs><g id="레이어_2" data-name="레이어 2"><g id="Layer_1" data-name="Layer 1"><path class="cls-1" d="M76.88,48.93C75.43,38.07,65.62,30.06,52.12,30.06c-14.72,0-25.49,8.06-25,19.62.33,7.81,7.09,13,17,13.9,1.9.17,3.42.48,4.06,2.4s-.76,4.77-3,7.29c-1.46,1.6-.7,3.44,1.4,3.35C63.47,75.87,79.2,66.4,76.88,48.93ZM62,63c-4,1.28-6.54-1.46-8-3.68-2-2.89-4.46-4.12-8.52-4.16-3.38,0-6.32-1.07-7.87-3a5.19,5.19,0,0,1-1.18-3.32,5.92,5.92,0,0,1,.25-1.69c1.4-4.86,7.68-8.5,14.39-8.5,9.88,0,16.1,5.41,17,12.12C68.75,56.1,66.69,61.43,62,63Z"/><path class="cls-2" d="M13.3,77.69a1.93,1.93,0,0,1,.85.79,1.93,1.93,0,0,1,.39,1.1.84.84,0,0,1-.37.7.85.85,0,0,1-.81.07,1.92,1.92,0,0,1-.86-.78,2,2,0,0,1-.39-1.1.86.86,0,0,1,.39-.71A.81.81,0,0,1,13.3,77.69ZM7.94,80.57,9.8,83.39l.84-.56L8.78,80Zm.68-2.27,3.54,5.36L13,83.1,9.47,77.74ZM8,74.45l.79,1.21L6,77.49l.63,1,7-4.59-.62-.95L9.67,75.05l-.79-1.21Zm5.42,2.12a1.7,1.7,0,0,0-1.55.14,1.67,1.67,0,0,0-.74,1.36,3.4,3.4,0,0,0,.67,2,3.33,3.33,0,0,0,1.57,1.38,1.64,1.64,0,0,0,1.56-.12A1.73,1.73,0,0,0,15.59,80,3.17,3.17,0,0,0,15,78,3.18,3.18,0,0,0,13.37,76.57Zm.72-4.81,3.4,5.14L15.78,78l.67,1L19,77.33,15,71.17Z"/><path class="cls-2" d="M1.23,57.6a1.24,1.24,0,0,1,1-.91,1.19,1.19,0,0,1,1.15.61A4.17,4.17,0,0,1,4,59.15a4.18,4.18,0,0,1-.12,2,1.19,1.19,0,0,1-.93.92,1.19,1.19,0,0,1-1.17-.59,4.2,4.2,0,0,1-.69-1.9A4,4,0,0,1,1.23,57.6Zm-.87-.85a6.33,6.33,0,0,0,.87,5.77,2.09,2.09,0,0,0,1.92.75A2.09,2.09,0,0,0,4.76,62,5.2,5.2,0,0,0,5,59,5.15,5.15,0,0,0,3.9,56.22,2.1,2.1,0,0,0,2,55.47,2.15,2.15,0,0,0,.36,56.75Zm5.19-3,1.51,10,1.06-.16-.67-4.44,3.8-.57-.17-1.14-3.8.58-.67-4.44Z"/><path class="cls-2" d="M13.41,36.66l-.32,1.11L2.28,34.65l.32-1.1Zm-2.95,1c0,.35-.13.85-.25,1.51s-.26,1.29-.42,1.91L9,43.92,4.62,42.66l1-3.66-2.2-.64L2.42,42l-1-.3L2.74,37,7,38.2,6,41.85l2.31.67.58-2.05c.12-.49.24-1,.35-1.65s.19-1.09.23-1.43Z"/><path class="cls-2" d="M20.6,18.37,14,26l-.82-.7,2.94-3.4L15,21l-2.08,2.4L10,20.84l4.92-5.69.81.7-4.16,4.82,1.32,1.14,4.24-4.9.81.7L15.77,20.1l1.09.95,2.93-3.39Zm2.53,3.89-.75.87-1.73-1.49L16.4,26.55l-.8-.69,5-5.79Z"/><path class="cls-2" d="M37.62,13.25,35,7.44l-2.07.94-.46-1,2.06-.93L33,3,34,2.53l4.65,10.25ZM35,12.06a5.1,5.1,0,0,1-1.91-.6,7.61,7.61,0,0,1-2-1.35A5.75,5.75,0,0,1,31,12.42a7.22,7.22,0,0,1-.82,2.1L29,14.16A5.92,5.92,0,0,0,30,10.92a8.49,8.49,0,0,0-.84-3.57l-.73-1.61,1.09-.5.74,1.62A7.23,7.23,0,0,0,32.39,9.7a6.39,6.39,0,0,0,2.92,1.21Z"/><path class="cls-2" d="M49.38,3.05v-2l5.22,0v2Zm6.38-3L48.24,0l0,4.12,7.52,0ZM57,5.3l-10.13,0V6.31l4.66,0V8.71H52.7V6.34l4.31,0ZM56,9.59l-6.61,0v-2H48.21l0,3.1,7.79,0Z"/><path class="cls-2" d="M70.56,4.54,71,3.6,73.91,5l-.44.94Zm-2.06,1,.45-1,5.49,2.58-.44,1Zm8.86.63-2,4.28,1.32.62-.49,1-1.31-.62-2.29,4.87-1-.49L76.32,5.72Zm-7,7.18c-.64-.26-1.38-.57-2.22-1l-2.81-1.3.46-1,2.71,1.27.49-1A2.71,2.71,0,0,1,68,9.2a1.51,1.51,0,0,1,0-1.28,1.56,1.56,0,0,1,1.21-.86,3,3,0,0,1,1.88.31,3.08,3.08,0,0,1,1.46,1.27,1.57,1.57,0,0,1,.11,1.49,1.45,1.45,0,0,1-1,.78,2.7,2.7,0,0,1-1.54,0l-.49,1c.52.25,1,.45,1.49.63s.92.32,1.32.44L72,14C71.55,13.84,71,13.65,70.38,13.39Zm1.12-4.5a2,2,0,0,0-.84-.69,1.8,1.8,0,0,0-1-.19.78.78,0,0,0-.63.4.75.75,0,0,0,.1.74,1.84,1.84,0,0,0,.82.65A2,2,0,0,0,71,10a.69.69,0,0,0,.62-.39A.74.74,0,0,0,71.5,8.89Z"/><path class="cls-2" d="M89.43,17.59A4.15,4.15,0,0,1,91,18.82a4,4,0,0,1,1,1.73,1,1,0,0,1-1.47,1.23,4.1,4.1,0,0,1-1.54-1.22A3.84,3.84,0,0,1,88,18.84a1.15,1.15,0,0,1,.28-1.17A1.09,1.09,0,0,1,89.43,17.59Zm3.65,3.24a5.12,5.12,0,0,0-1.36-2.65,5.1,5.1,0,0,0-2.36-1.77,2,2,0,0,0-1.92.34,1.94,1.94,0,0,0-.66,1.84,5,5,0,0,0,1.34,2.62A5.11,5.11,0,0,0,90.5,23a2,2,0,0,0,1.93-.35A2,2,0,0,0,93.08,20.83ZM90.6,25.74,84.07,18l-.82.69,3,3.51-1.72,1.45.75.89L87,23.09l2.82,3.35Zm-3.9,2-4.29-5.1L84,21.26l-.74-.88-2.45,2.07,5,6Z"/><path class="cls-2" d="M94.5,42.2c-.08.54-.29.86-.62.95s-.67-.08-1-.51A5,5,0,0,1,92,40.83a4.86,4.86,0,0,1-.2-2c.08-.54.28-.86.61-1s.69.07,1,.5a5.06,5.06,0,0,1,.82,1.82A4.85,4.85,0,0,1,94.5,42.2Zm3.83,2.16L97.15,40l1.21-.33.86,3.15,1-.28-1.7-6.23,1.5-.41,1.68,6.12,1-.28-2-7.25-3.55,1L98,38.56l-1.2.33-1.18-4.3-1,.28,2.66,9.77ZM95.45,43a6,6,0,0,0-.21-3,6,6,0,0,0-1.37-2.71,1.76,1.76,0,0,0-1.77-.6,1.8,1.8,0,0,0-1.23,1.42,6,6,0,0,0,.19,3,5.91,5.91,0,0,0,1.39,2.72,1.69,1.69,0,0,0,3-.82Z"/><path class="cls-2" d="M99.8,57.17l1.34.22-.84,5.15L99,62.32Zm-3.43,7.2L97.09,60l1.17.19-.51,3.11,4.75.78.18-1.13-1.35-.22.85-5.15,1.35.22.18-1.13L99,55.87,98.46,59l-1.18-.19L98,54.38l-1.08-.18-1.63,10Zm-3.53-1.61,1.07-6.53,1.88.31L96,55.38,93,54.9l-1.26,7.68Z"/><path class="cls-2" d="M93,76.7l1.26.85L91.3,81.86,90,81Zm-.29,7.48.65-1-1.13-.77,2.92-4.31,1.13.77.65-1-4.17-2.83L88.5,81.35Zm-5.91-2.43,5.69-8.38-.89-.6L89,76.48,86,74.41l-.64,1,3,2.06-2.51,3.72Z"/><path class="cls-2" d="M31.4,91.61a3.4,3.4,0,0,0-1.09-1,1,1,0,0,0-1.52.41c-.68,1.19,2.33,2.23,1,4.54-.86,1.51-2.26,1.48-3.51.77a5.51,5.51,0,0,1-1.44-1.17L25.68,94a3.1,3.1,0,0,0,1.16,1.22,1.16,1.16,0,0,0,1.61-.26c.74-1.32-2.29-2.31-1-4.6a2.27,2.27,0,0,1,3.36-.87,4.87,4.87,0,0,1,1.35,1.08Z"/><path class="cls-2" d="M33.45,91l1.3.59-3.24,7.23-1.31-.59Z"/><path class="cls-2" d="M35.78,92.08l1.67.53.78,6.48h0l1.81-5.64,1.31.42L39,101.41l-1.66-.53-.8-6.48h0L34.67,100l-1.31-.42Z"/><path class="cls-2" d="M46.38,102.63a6.92,6.92,0,0,1-1.64,0,3.59,3.59,0,0,1-3.23-4.54c.43-2.68,2.15-3.94,4.54-3.55a4.18,4.18,0,0,1,1.54.58l-.32,1.31a2.73,2.73,0,0,0-1.45-.67c-1.45-.23-2.56.85-2.82,2.46s.44,2.93,1.94,3.17a3.57,3.57,0,0,0,1.59-.07Z"/><path class="cls-2" d="M48.32,94.93l4.21.13,0,1.24-2.78-.08-.06,2,2.55.08,0,1.25-2.54-.08-.07,2.22,2.8.09,0,1.25-4.23-.13Z"/><path class="cls-2" d="M58.39,94.49l1.25-.19,1.21,7.83-1.41.22-.94-6-1,1.26-.87-.91Z"/><path class="cls-2" d="M64.62,97.16c-.66.19-1.13-.42-1.34-1.16s-.12-1.44.52-1.62,1.13.36,1.34,1.08S65.29,97,64.62,97.16Zm-.92,4.24a3.88,3.88,0,0,0,1.52-.14c2.22-.63,2.18-3.07,1.59-5.13-.51-1.79-1.43-3.43-3.33-2.89-1.56.44-2,1.74-1.51,3.39.4,1.41,1.37,2.12,2.67,1.75a1.47,1.47,0,0,0,1.11-1.14l0,0c.28,1.15.22,2.48-1,2.82a2.79,2.79,0,0,1-1.28,0Z"/><path class="cls-2" d="M70.1,95.23c-.63.27-1.18-.28-1.48-1s-.3-1.41.31-1.67,1.17.22,1.47.91S70.74,95,70.1,95.23Zm-.39,4.32a4,4,0,0,0,1.49-.32c2.13-.91,1.78-3.32.94-5.3-.72-1.71-1.84-3.22-3.67-2.45-1.48.63-1.74,2-1.07,3.55C68,96.38,69,97,70.27,96.44a1.51,1.51,0,0,0,1-1.27h0c.43,1.11.54,2.44-.6,2.92a2.73,2.73,0,0,1-1.27.2Z"/><path class="cls-2" d="M76.74,95.18c-.91.53-1.85-1.12-2.35-2s-1.47-2.55-.57-3.07,1.88,1.13,2.39,2S77.67,94.64,76.74,95.18Zm.6,1c1.78-1,1-3.19.11-4.78S75,88.06,73.22,89.11s-1.06,3.09-.07,4.8C74,95.35,75.44,97.3,77.34,96.2Z"/><path class="cls-2" d="M20.25,86.81a.95.95,0,1,1-1.89,0,.95.95,0,0,1,1.89,0Z"/><path class="cls-2" d="M84.92,86.81a.95.95,0,1,1-1.89,0,.95.95,0,0,1,1.89,0Z"/></g></g></svg>