<svg xmlns="http://www.w3.org/2000/svg" viewBox="0 0 49.53 62.16"><defs><style>.cls-1{fill:#323333;}</style></defs><g id="레이어_2" data-name="레이어 2"><g id="격리_모드" data-name="격리 모드"><path class="cls-1" d="M43.63,62.16V50.6A18.82,18.82,0,0,0,31.79,33.11a2.94,2.94,0,0,1-.5-5.2,12,12,0,1,0-13,0,2.95,2.95,0,0,1-.51,5.2A18.83,18.83,0,0,0,5.89,50.6V62.16H0V50.6A24.71,24.71,0,0,1,10.64,30.28l.75-.52-.57-.71a17.88,17.88,0,1,1,27.89,0l-.57.71.75.52A24.71,24.71,0,0,1,49.53,50.6V62.16Z"/><polygon class="cls-1" points="22.9 57.34 15.06 47.09 18.97 44.1 23.16 49.56 31.03 40.58 34.74 43.83 22.9 57.34"/></g></g></svg>