<svg xmlns="http://www.w3.org/2000/svg" width="66" height="50">
    <path fill="#333" fill-rule="evenodd" d="M61.808 28.967H3.813C1.712 28.967.8 27.299.8 25.24c0-2.058.912-3.726 3.013-3.726h57.995c2.101 0 3.805 1.668 3.805 3.726 0 2.059-1.704 3.727-3.805 3.727zm0-20.605H3.813C1.712 8.362.8 6.687.8 4.621S1.712.88 3.813.88h57.995c2.101 0 3.805 1.675 3.805 3.741s-1.704 3.741-3.805 3.741zM3.813 42.117h57.995c2.101 0 3.805 1.675 3.805 3.741s-1.704 3.741-3.805 3.741H3.813C1.712 49.599.8 47.924.8 45.858s.912-3.741 3.013-3.741z"/>
</svg>
