<svg xmlns="http://www.w3.org/2000/svg" viewBox="0 0 116.98 46.15"><defs><style>.cls-1,.cls-2{fill:#585959;}.cls-2,.cls-3{fill-rule:evenodd;}.cls-3{fill:#ea5504;}</style></defs><g id="레이어_2" data-name="레이어 2"><g id="격리_모드" data-name="격리 모드"><path class="cls-1" d="M77.72,34.73a7.16,7.16,0,0,0,.35-1.61H74.26V31.69h6a8.28,8.28,0,0,1-1.81,5.23,8.59,8.59,0,0,1-4.11,2.52l-1.06-.9A7,7,0,0,0,77,36.11H74.34V34.73Zm8.78,11H77.26a.49.49,0,0,1-.36-.15.46.46,0,0,1-.16-.36V41.68a3.37,3.37,0,0,0-.25-1.51h10Zm-2-1.42V41.6H78.76v2.75Zm2.09-6.66a9.83,9.83,0,0,1-.12,1.68H84.68V35.71H83.54v2a9.83,9.83,0,0,1-.12,1.68H81.64v-6.8a3.6,3.6,0,0,0-.24-1.52h2.14v3.23h1.14V32.57a3.6,3.6,0,0,0-.24-1.52h2.14Z"/><path class="cls-1" d="M90,33.44H88.5V32h9v1.43h-1.6V40h1.92v1.42H88.5V40H90Zm3.9,0H92V40h2Zm7.31,10.65a9.83,9.83,0,0,1-.12,1.68H99.19V37.28H96.82V35.85h2.37V32.57a3.54,3.54,0,0,0-.25-1.52h2.28Z"/><path class="cls-1" d="M117,44.08H102.9V42.65H117ZM116.23,39l-.91,1.1a9.38,9.38,0,0,1-3.14-1,6.49,6.49,0,0,1-2.24-1.95,6.4,6.4,0,0,1-2.24,1.95,9.32,9.32,0,0,1-3.13,1l-.91-1.1a7.1,7.1,0,0,0,3.64-1.68,4.2,4.2,0,0,0,1.59-3.2v-1a3.72,3.72,0,0,0-.16-1.23H111v2.26a4.22,4.22,0,0,0,1.58,3.2A7.17,7.17,0,0,0,116.23,39Z"/><path class="cls-1" d="M4.54,23.39v2.06H0v.64c0,1.19.51,1.28,1.29,1.28H3l-.37.28a4.85,4.85,0,0,0-1.92,4c0,3,2.18,5.07,5.43,5.07s5.42-2,5.42-5.07a4.82,4.82,0,0,0-1.92-4l-.37-.28h3V26a.56.56,0,0,0-.61-.57H7.63V24A.56.56,0,0,0,7,23.39ZM3.27,31.66c0-1.95,1.11-3.22,2.82-3.22S8.9,29.71,8.9,31.66s-1.1,3.22-2.81,3.22S3.27,33.62,3.27,31.66Zm12.1-7.85V39.4a.21.21,0,0,0,.07.18.54.54,0,0,0,.39.1,3.86,3.86,0,0,0,2-.72,1.09,1.09,0,0,0,.39-.88V31.25h2.88V29.86a.56.56,0,0,0-.6-.55H18.18V24.45a.64.64,0,0,0-.68-.64ZM4.07,38.93v4.69a2,2,0,0,0,2.22,2H18.77V44.28a.55.55,0,0,0-.59-.57H7.38a.46.46,0,0,1-.51-.52v-3.7a.56.56,0,0,0-.61-.56Z"/><path class="cls-2" d="M51.64,33.34H45.51V38c0,.35.12.54.57.54a21.46,21.46,0,0,0,4.22-.39,19.47,19.47,0,0,0,6.4-2V23.81h2.14a.64.64,0,0,1,.67.64V44.54a1.1,1.1,0,0,1-.39.89,3.78,3.78,0,0,1-2,.72.59.59,0,0,1-.39-.1.24.24,0,0,1-.07-.18V38.22A27.19,27.19,0,0,1,45.45,41c-2.09.07-2.73-.81-2.73-2V31.44h7.5V27.25H43.76c-.67,0-1.13-.28-1.13-1.39v-.53h9.81c.36,0,.6.11.6.55V32.1C53,32.93,52.54,33.34,51.64,33.34Z"/><path class="cls-1" d="M23.89,28.85c0,3.29,2.62,5.42,6.68,5.42s6.68-2.13,6.68-5.42-2.62-5.41-6.68-5.41S23.89,25.56,23.89,28.85Zm3.06,0a3.42,3.42,0,0,1,3.62-3.61,3.42,3.42,0,0,1,3.62,3.61,3.42,3.42,0,0,1-3.62,3.61A3.42,3.42,0,0,1,27,28.85Z"/><path class="cls-1" d="M20.21,36.68c0,1.19.49,1.43,1.29,1.43h7.76v7.76a.24.24,0,0,0,.07.18.57.57,0,0,0,.4.09,3.69,3.69,0,0,0,1.95-.71,1.07,1.07,0,0,0,.39-.89V38.11h8.74V36.75a.56.56,0,0,0-.6-.56h-20Z"/><path class="cls-3" d="M85.78,11.57C84.89,4.91,78.87,0,70.59,0,61.57,0,55,5,55.26,12c.2,4.79,4.35,8,10.4,8.53,1.16.1,2.09.29,2.49,1.47S67.68,25,66.28,26.5c-.89,1-.42,2.11.86,2.05C77.56,28.1,87.2,22.29,85.78,11.57Zm-9.15,8.61c-2.43.78-4-.9-4.93-2.26-1.19-1.77-2.73-2.53-5.22-2.55a6.25,6.25,0,0,1-4.83-1.83,3.2,3.2,0,0,1-.72-2,3.79,3.79,0,0,1,.15-1c.86-3,4.71-5.21,8.83-5.21,6.06,0,9.88,3.32,10.44,7.44C80.8,16,79.53,19.24,76.63,20.18Z"/></g></g></svg>