<svg xmlns="http://www.w3.org/2000/svg" viewBox="0 0 127.92 113.05"><defs><style>.cls-1{fill:#ffbd00;}.cls-2{fill:none;stroke:#272525;stroke-miterlimit:10;stroke-width:3px;}</style></defs><g id="레이어_2" data-name="레이어 2"><g id="LINE"><path class="cls-1" d="M81.21,4.7,43.83,19.37l22.4,6.94L58.91,53.8s14.59-1.09,22.44,5.46c0,0,7.52-7.13,22.15-5.46L96.17,26.24l20.71-6.34V50.25h3.91V20.39Z"/><polyline class="cls-2" points="57.32 22.05 39.24 16.28 76.62 1.61 114.01 16.28 96.24 21.95"/><path class="cls-2" d="M98.92,50.71l-7.85-29.5A38.22,38.22,0,0,0,76.76,18a30.53,30.53,0,0,0-14.58,3.2l-7.85,29.5s14.58-1.09,22.43,5.46C76.76,56.17,84.28,49,98.92,50.71Z"/><line class="cls-2" x1="115.17" y1="16.37" x2="115.17" y2="47.39"/><path class="cls-2" d="M124.66,23.22c1,0,1.76,1.06,1.76,2.36v83.61c0,1.3-.79,2.36-1.76,2.36H3.26c-1,0-1.76-1.06-1.76-2.36V25.58c0-1.3.79-2.36,1.76-2.36H31.15"/><line class="cls-2" x1="57.04" y1="79.55" x2="116.25" y2="79.55"/><line class="cls-2" x1="57.04" y1="62.72" x2="116.25" y2="62.72"/><line class="cls-2" x1="57.04" y1="96.38" x2="116.25" y2="96.38"/><rect class="cls-2" x="15.07" y="61.75" width="33.47" height="34.63"/></g></g></svg>