<svg xmlns="http://www.w3.org/2000/svg" viewBox="0 0 190.25 174"><defs><style>.cls-1{fill:#505050;}.cls-1,.cls-2,.cls-3{stroke:#000;stroke-linecap:round;stroke-width:2px;}.cls-1,.cls-2{stroke-linejoin:round;}.cls-2{fill:none;}.cls-3{fill:#fff;stroke-miterlimit:10;}</style></defs><g id="레이어_2" data-name="레이어 2"><g id="icon"><rect class="cls-1" x="76.25" y="82.11" width="37.76" height="83.9"/><path class="cls-1" d="M155.25,173H35a11.19,11.19,0,0,1,11.19-11.19h97.89A11.18,11.18,0,0,1,155.25,173Z"/><rect class="cls-1" x="1" y="1" width="188.25" height="136.43" rx="4"/><rect class="cls-2" x="1" y="1" width="188.25" height="136.43" rx="4"/><path class="cls-3" d="M184.39,1H5.86A4.87,4.87,0,0,0,1,5.86V112.43H189.25V5.86A4.87,4.87,0,0,0,184.39,1Z"/><polyline class="cls-3" points="51.16 44.56 58.64 53.11 67.94 42.31"/><line class="cls-3" x1="80.19" y1="46.63" x2="138.84" y2="46.63"/><polyline class="cls-3" points="51.16 68.3 58.64 76.85 67.94 66.05"/><line class="cls-3" x1="80.19" y1="70.37" x2="138.84" y2="70.37"/></g></g></svg>