<svg xmlns="http://www.w3.org/2000/svg" viewBox="0 0 33.6 28.8"><defs><style>.cls-1{fill:#fff;}</style></defs><g id="레이어_2" data-name="레이어 2"><g id="레이어_1-2" data-name="레이어 1"><path class="cls-1" d="M16.8,4.8C15.17,4.8,7.49,6,7.22,14.11a10.79,10.79,0,0,0,8.16-8.42A10.65,10.65,0,0,0,26,11.93,9.53,9.53,0,0,0,16.8,4.8Z"/><circle class="cls-1" cx="10.8" cy="16.2" r="1.8"/><circle class="cls-1" cx="22.8" cy="16.2" r="1.8"/><path class="cls-1" d="M31.2,14.4a14.4,14.4,0,0,0-28.8,0A2.41,2.41,0,0,0,0,16.8v4.8A2.41,2.41,0,0,0,2.4,24H4.8V14.4a12,12,0,0,1,24,0v12H14.4v2.4H28.8a2.41,2.41,0,0,0,2.4-2.4V24a2.41,2.41,0,0,0,2.4-2.4V16.8A2.41,2.41,0,0,0,31.2,14.4Z"/></g></g></svg>