<svg xmlns="http://www.w3.org/2000/svg" viewBox="0 0 142.69 102.78"><defs><style>.cls-1{fill:#ffbd00;}.cls-2{fill:none;stroke:#272525;stroke-miterlimit:10;stroke-width:3px;}</style></defs><g id="레이어_2" data-name="레이어 2"><g id="COLOR"><path class="cls-1" d="M109.62,67H95.36V54.16h14.26Z"/><path class="cls-1" d="M109.62,27.08H95.36V14.25h14.26Z"/><rect class="cls-1" x="39.77" y="19.95" width="38.48" height="5.7"/><rect class="cls-1" x="39.77" y="38.48" width="38.48" height="5.7"/><rect class="cls-1" x="39.77" y="57.01" width="38.48" height="5.7"/><polygon class="cls-1" points="99.33 48.87 91.41 35.77 96.21 32.64 100.65 40.27 129.35 21.3 132.99 25.75 99.33 48.87"/></g><g id="LINE"><polyline class="cls-2" points="125.53 28.77 125.53 74.14 17.15 74.14 17.15 1.5 118.7 1.5"/><polygon class="cls-2" points="141.19 90.6 125.53 74.14 17.15 74.14 1.5 90.6 1.5 101.28 141.19 101.28 141.19 90.6"/><line class="cls-2" x1="1.5" y1="90.6" x2="141.19" y2="90.6"/><line class="cls-2" x1="75.41" y1="18.53" x2="34.07" y2="18.53"/><line class="cls-2" x1="75.41" y1="37.06" x2="34.07" y2="37.06"/><line class="cls-2" x1="75.41" y1="55.59" x2="34.07" y2="55.59"/><rect class="cls-2" x="92.51" y="9.98" width="12.83" height="12.83"/><rect class="cls-2" x="92.51" y="49.89" width="12.83" height="12.83"/><polyline class="cls-2" points="89.28 31.18 95.38 40.78 126.77 19.59"/></g></g></svg>