<svg xmlns="http://www.w3.org/2000/svg" viewBox="0 0 155.98 110.22"><defs><style>.cls-1{fill:#ffbd00;}.cls-2,.cls-3{fill:none;stroke:#272525;stroke-width:3px;}.cls-2{stroke-miterlimit:10;}.cls-3{stroke-linecap:round;stroke-linejoin:round;}</style></defs><g id="레이어_2" data-name="레이어 2"><g id="LINE"><path class="cls-1" d="M156,88.65a21.46,21.46,0,0,1-21.35,21.57h-7.12a21.47,21.47,0,0,1-21.36-21.57V50.88a21.46,21.46,0,0,1,21.36-21.56h7.12A21.45,21.45,0,0,1,156,50.88Z"/><line class="cls-2" x1="88.07" y1="16.5" x2="48.2" y2="16.5"/><line class="cls-2" x1="88.07" y1="32.92" x2="48.2" y2="32.92"/><rect class="cls-2" x="17.65" y="16.5" width="16.42" height="16.42"/><polyline class="cls-2" points="37.77 63.42 45.53 75.6 85.42 48.7"/><path class="cls-2" d="M151.26,83.88a21.46,21.46,0,0,1-21.36,21.56h-7.12a21.45,21.45,0,0,1-21.35-21.56V46.1a21.46,21.46,0,0,1,21.35-21.56h7.12A21.46,21.46,0,0,1,151.26,46.1Z"/><line class="cls-2" x1="104.78" y1="63.91" x2="141.76" y2="63.91"/><line class="cls-2" x1="126.34" y1="63.91" x2="126.34" y2="99.3"/><rect class="cls-2" x="123.19" y="35.83" width="6.3" height="19.31"/><polyline class="cls-3" points="101.59 94.67 1.5 94.67 1.5 1.5 108.08 1.5 108.08 1.5"/><line class="cls-2" x1="125.89" y1="22.14" x2="125.89" y2="2.91"/><line class="cls-3" x1="108.4" y1="11.49" x2="108.4" y2="1.5"/></g></g></svg>