<svg xmlns="http://www.w3.org/2000/svg" viewBox="0 0 122 137.46"><defs><style>.cls-1{fill:#ccc;}.cls-1,.cls-2,.cls-3,.cls-5,.cls-6,.cls-7{stroke:#000;stroke-width:2px;}.cls-1,.cls-2,.cls-5,.cls-6,.cls-7{stroke-linecap:round;}.cls-1,.cls-2,.cls-3{stroke-miterlimit:10;}.cls-2{fill:#fff;}.cls-3{fill:#ffeb02;}.cls-4{fill:#e7e9ed;}.cls-5{fill:#afdae9;}.cls-5,.cls-6,.cls-7{stroke-linejoin:round;}.cls-6{fill:#f7454a;}.cls-7{fill:none;}</style></defs><g id="레이어_2" data-name="레이어 2"><g id="icon"><path class="cls-1" d="M116.52,23.69,66.41,3.8a7.86,7.86,0,0,0-11.19,0L4.34,24.8S1,27.91,1,34.69v73.39a8.19,8.19,0,0,0,8,8.38H113a8.19,8.19,0,0,0,8-8.38V34.69A16.3,16.3,0,0,0,116.52,23.69Z"/><path class="cls-2" d="M111.47,110.4c0,2.26-1.28,4.6-3.46,4.6H15.93a4.94,4.94,0,0,1-4.46-4.6V4.6c0-2.26,2.27-3.6,4.46-3.6H108c2.18,0,3.46,1.34,3.46,3.6Z"/><line class="cls-3" x1="60.47" y1="14" x2="100.47" y2="14"/><line class="cls-3" x1="60.47" y1="25" x2="86.47" y2="25"/><line class="cls-3" x1="60.47" y1="35.46" x2="86.47" y2="35.46"/><rect class="cls-4" x="24.05" y="47.46" width="76" height="12"/><rect class="cls-4" x="24.05" y="65.46" width="76" height="40"/><path class="cls-5" d="M48.53,38.17c0-3.13-3.63-9.91-8.58-11.29a.72.72,0,0,1-.07-1.37,7.51,7.51,0,0,0,4.54-6.88,7.63,7.63,0,1,0-10.9,6.88c.77.37.75,1.19.08,1.37-4.93,1.39-8.55,8.26-8.55,11.29Z"/><path class="cls-5" d="M55.59,91.84,1,37.5V108a8.81,8.81,0,0,0,8.37,8.5H113.63c4.35,0,7.37-4.08,7.37-8.5V37.5L66.78,91.84A7.84,7.84,0,0,1,55.59,91.84Z"/><line class="cls-5" x1="12" y1="107.46" x2="39.43" y2="78.28"/><line class="cls-5" x1="109" y1="107.46" x2="81.57" y2="78.28"/><polygon class="cls-6" points="81.38 136.46 84.91 117.61 103.81 120.87 74.99 79.52 51.39 94.54 81.38 136.46"/><polygon class="cls-6" points="44.36 136.46 40.24 117.73 21.45 121.59 48.96 79.35 73.02 93.62 44.36 136.46"/><path class="cls-3" d="M62.42,103.06a28.3,28.3,0,1,1,28.3-28.3A28.33,28.33,0,0,1,62.42,103.06Z"/><path class="cls-7" d="M62.42,90.74a16,16,0,1,1,16-16A16,16,0,0,1,62.42,90.74Z"/></g></g></svg>