<svg xmlns="http://www.w3.org/2000/svg" viewBox="0 0 61.8 65.27"><defs><style>.cls-1{fill:#fff;}</style></defs><g id="레이어_2" data-name="레이어 2"><g id="Layer_1" data-name="Layer 1"><rect class="cls-1" x="37.42" y="8.66" width="4.35" height="3.2"/><rect class="cls-1" x="28.73" y="8.66" width="4.35" height="3.2"/><rect class="cls-1" x="20.04" y="8.79" width="4.35" height="3.2"/><path class="cls-1" d="M61.51,5.12l-.4-2.33H51.44V0H10.36V2.79H.69L.29,5.12c-.07.42-1.65,15,3.32,20.9a11.82,11.82,0,0,0,7.61,4.07A20.57,20.57,0,0,0,28,44.58v9.93c-6.3,1-10.89,4.9-10.89,9.77v1H44.72v-1c0-4.87-4.6-8.82-10.9-9.77V44.58A20.59,20.59,0,0,0,50.59,30.09,11.79,11.79,0,0,0,58.19,26C63.16,20.14,61.58,5.54,61.51,5.12ZM5.61,8.39h4.75V24.14A6.06,6.06,0,0,1,7.9,22.42C5.87,20,5.52,11.18,5.61,8.39ZM46,24.33a15.13,15.13,0,0,1-30.26,0v-19H46Zm7.88-1.92a5.91,5.91,0,0,1-2.47,1.72V8.39h4.74C56.28,11,56,19.89,53.91,22.41Z"/><polygon class="cls-1" points="30.9 29.84 24.94 33.45 26.53 26.66 21.25 22.11 28.2 21.52 30.9 15.1 33.6 21.52 40.55 22.11 35.28 26.66 36.86 33.45 30.9 29.84"/></g></g></svg>