<svg id="격리_모드" data-name="격리 모드" xmlns="http://www.w3.org/2000/svg" viewBox="0 0 133.33 141.02"><defs><style>.cls-1{fill:#231815;}</style></defs><path class="cls-1" d="M564.47,296c-36.82,0-66.67,27.61-66.67,61.67,0,25.15,10.54,37.16,25,48.11l.07,0v29.51a1.69,1.69,0,0,0,2.7,1.36l25.28-18.78.55.24a72.37,72.37,0,0,0,13.1,1.19c36.82,0,66.67-27.6,66.67-61.66S601.29,296,564.47,296m-22.35,77.3c6.54,0,12.13-3.92,13.81-10h9.67c-2.37,11.63-11.42,19.25-23.48,19.25-14,0-25.12-10.45-25.12-25s11.11-25,25.12-25c12.18,0,21.3,7.77,23.55,19.6H556c-1.47-6.43-7.25-10.44-13.91-10.44-9.42,0-15.68,6.72-15.68,15.83a15.48,15.48,0,0,0,15.68,15.7m63.69,8.34H597v-20c0-4.6-2.68-7.07-6.8-7.07-4.6,0-7.55,2.81-7.55,8.51v18.55h-8.86V332.76h8.86v18.39c2.12-3.23,5.56-4.81,10.23-4.81a12.19,12.19,0,0,1,9.27,3.78c2.47,2.54,3.7,6,3.7,10.43Z" transform="translate(-497.8 -296)"/></svg>