<svg xmlns="http://www.w3.org/2000/svg" viewBox="0 0 48 41.78"><defs><style>.cls-1{opacity:0.4;}</style></defs><g id="레이어_2" data-name="레이어 2"><g id="레이어_1-2" data-name="레이어 1"><path class="cls-1" d="M24,7.75a21.3,21.3,0,0,1,19.24,12A20.87,20.87,0,0,1,38,26.55l3.07,3.08A25.79,25.79,0,0,0,48,19.75,25.79,25.79,0,0,0,16.06,4.63l3.6,3.6A21.61,21.61,0,0,1,24,7.75Zm-2.33,2.48,4.51,4.52A5.39,5.39,0,0,1,29,17.54l4.52,4.52a9.93,9.93,0,0,0,.31-2.34A9.78,9.78,0,0,0,24,9.93,9.48,9.48,0,0,0,21.67,10.23ZM2.2,3.1,8.05,9a25.55,25.55,0,0,0-8,10.8A25.81,25.81,0,0,0,24,36.11a25.55,25.55,0,0,0,9.43-1.79l7.46,7.46L44,38.71,5.28,0ZM18.57,19.46l5.69,5.7a1.17,1.17,0,0,1-.26,0,5.45,5.45,0,0,1-5.45-5.45C18.55,19.64,18.57,19.57,18.57,19.46ZM11.15,12,15,15.86a10.08,10.08,0,0,0-.79,3.89,9.84,9.84,0,0,0,13.68,9L30,30.92a22.93,22.93,0,0,1-6,.83,21.32,21.32,0,0,1-19.24-12A21.57,21.57,0,0,1,11.15,12Z"/></g></g></svg>