<svg xmlns="http://www.w3.org/2000/svg" viewBox="0 0 190.25 174"><defs><style>.cls-1{fill:#505050;}.cls-1,.cls-2,.cls-3,.cls-4,.cls-5{stroke:#000;stroke-linecap:round;stroke-width:2px;}.cls-1,.cls-2,.cls-4,.cls-5{stroke-linejoin:round;}.cls-2{fill:none;}.cls-3{fill:#fff;stroke-miterlimit:10;}.cls-4{fill:#afdae9;}.cls-5{fill:#ffeb02;}</style></defs><g id="레이어_2" data-name="레이어 2"><g id="icon"><rect class="cls-1" x="76.25" y="82.11" width="37.76" height="83.9"/><path class="cls-1" d="M155.25,173H35a11.19,11.19,0,0,1,11.19-11.19h97.89A11.18,11.18,0,0,1,155.25,173Z"/><rect class="cls-1" x="1" y="1" width="188.25" height="136.43" rx="4"/><rect class="cls-2" x="1" y="1" width="188.25" height="136.43" rx="4"/><path class="cls-3" d="M184.39,1H5.86A4.87,4.87,0,0,0,1,5.86V112.44H189.25V5.86A4.87,4.87,0,0,0,184.39,1Z"/><rect class="cls-4" x="45.05" y="26.17" width="100.15" height="65.72" rx="8"/><path class="cls-5" d="M131.83,42.06a8.24,8.24,0,1,1-11.18-3.29A8.24,8.24,0,0,1,131.83,42.06Z"/><line class="cls-2" x1="87.3" y1="77.81" x2="131.9" y2="77.81"/><line class="cls-2" x1="59.13" y1="77.81" x2="75.56" y2="77.81"/><line class="cls-2" x1="59.13" y1="69.99" x2="75.56" y2="69.99"/><path class="cls-5" d="M120.26,42.06a8.24,8.24,0,1,1-11.18-3.29A8.25,8.25,0,0,1,120.26,42.06Z"/></g></g></svg>