<svg xmlns="http://www.w3.org/2000/svg" viewBox="0 0 14.73 10.44"><defs><style>.cls-1{fill:#fff;}</style></defs><g id="레이어_2" data-name="레이어 2"><g id="격리_모드" data-name="격리 모드"><path class="cls-1" d="M6.14,5.53H.31a.31.31,0,0,1,0-.62H6.14a.31.31,0,0,1,0,.62Z"/><path class="cls-1" d="M4.91,4.07h-4a.31.31,0,0,1-.31-.31.3.3,0,0,1,.31-.3h4a.3.3,0,0,1,.31.3A.31.31,0,0,1,4.91,4.07Z"/><path class="cls-1" d="M3.07,7H.92a.31.31,0,0,1-.31-.31.3.3,0,0,1,.31-.3H3.07a.3.3,0,0,1,.31.3A.31.31,0,0,1,3.07,7Z"/><path class="cls-1" d="M13.86,4.1,12.09,4,12,2.54,9.82,1.25a1.85,1.85,0,0,0-2.25.26L6.2,2.87a.57.57,0,0,0,0,.82.55.55,0,0,0,.8,0L8.76,2.24l.66.37L7.35,5.87,4.17,9.12a.61.61,0,0,0-.08.77A.56.56,0,0,0,5,10L8.08,7.11,9.6,7.7l-.66.59s-1.08.65-.69,1.06a1,1,0,0,0,1.11,0l1.54-1A.93.93,0,0,0,11,7L9.44,6.11,11,4.21l.08.46a.47.47,0,0,0,.43.45l2.36.14a.58.58,0,0,0,0-1.16Z"/><path class="cls-1" d="M4.55,10.44H4.48a.86.86,0,0,1-.64-.37A.9.9,0,0,1,4,8.9L7.11,5.68,9,2.72l-.2-.11L7.21,3.92a.88.88,0,0,1-.61.25h0A.84.84,0,0,1,6,3.91.89.89,0,0,1,6,2.66L7.36,1.29A2.15,2.15,0,0,1,10,1l2.13,1.29a.28.28,0,0,1,.15.23l.11,1.22,1.5.07a.87.87,0,0,1,.86.88.88.88,0,0,1-.87.89l-2.38-.14a.77.77,0,0,1-.67-.51L9.9,6l1.21.7.07.06a1.26,1.26,0,0,1-.07,1.76l0,0-1.51,1a1.2,1.2,0,0,1-.76.23A1.1,1.1,0,0,1,8,9.56a.59.59,0,0,1-.16-.5c.06-.47.66-.88.88-1L9,7.8l-.88-.33-3,2.72A.87.87,0,0,1,4.55,10.44ZM8.76,1.93a.28.28,0,0,1,.15,0l.66.37a.28.28,0,0,1,.15.2.27.27,0,0,1,0,.23L7.61,6l0,0L4.39,9.33a.31.31,0,0,0,0,.38.24.24,0,0,0,.19.11.27.27,0,0,0,.21-.07L7.87,6.89a.29.29,0,0,1,.32-.06l1.51.58a.31.31,0,0,1,.2.23.3.3,0,0,1-.1.28l-.66.6-.05,0c-.3.18-.61.47-.62.58a.65.65,0,0,0,.33.07c.21,0,.32-.05.34-.08l0,0,1.52-1a.63.63,0,0,0,0-.84L9.29,6.37a.27.27,0,0,1-.15-.21.29.29,0,0,1,.06-.25L10.75,4a.32.32,0,0,1,.32-.1.3.3,0,0,1,.22.24l.08.46a.06.06,0,0,1,0,0,.16.16,0,0,0,.14.16L13.88,5a.27.27,0,0,0,.24-.28.27.27,0,0,0-.26-.27h0l-1.77-.08a.29.29,0,0,1-.29-.28l-.13-1.33-2-1.21a1.54,1.54,0,0,0-1.87.22L6.41,3.09a.28.28,0,0,0,0,.39.23.23,0,0,0,.18.08h0a.25.25,0,0,0,.18-.08l0,0L8.56,2A.31.31,0,0,1,8.76,1.93Z"/><path class="cls-1" d="M12.65,1.62a1,1,0,0,1-1.16.73A1,1,0,0,1,11,1.08,1,1,0,0,1,12.11.34,1,1,0,0,1,12.65,1.62Z"/><path class="cls-1" d="M11.73,2.7a1.26,1.26,0,0,1-.33-.05A1.31,1.31,0,0,1,10.66,1a1.41,1.41,0,0,1,.68-.86A1.13,1.13,0,0,1,12.2.05,1.31,1.31,0,0,1,13,1.71a1.47,1.47,0,0,1-.69.85A1.13,1.13,0,0,1,11.73,2.7ZM11.88.61a.57.57,0,0,0-.25.07.81.81,0,0,0-.39.49.69.69,0,0,0,.35.89A.49.49,0,0,0,12,2a.84.84,0,0,0,.38-.49A.69.69,0,0,0,12,.64Z"/></g></g></svg>