<svg xmlns="http://www.w3.org/2000/svg" viewBox="0 0 140.23 103.82"><defs><style>.cls-1{fill:#ffbd00;}.cls-2,.cls-3{fill:none;stroke:#272525;stroke-width:3px;}.cls-2{stroke-miterlimit:10;}.cls-3{stroke-linejoin:bevel;}</style></defs><g id="레이어_2" data-name="레이어 2"><g id="COLOR"><polygon class="cls-1" points="33.77 44.94 45.45 44.94 45.45 39.27 33.77 39.27 33.77 34.08 45.6 34.08 45.6 28.41 28.16 28.41 28.16 57.41 45.78 57.41 45.78 51.74 33.77 51.74 33.77 44.94"/><path class="cls-1" d="M111.44,26.37l-6.35,12.7-7-13.28-4.59,1.35V51.58L81.34,23.76,68.7,52.59l-7.32-10.2,7.74-10.78-4.54-3.33-6.67,9.28-6.66-9.28-4.54,3.33,7.74,10.78L46.71,53.16l4.54,3.33,6.66-9.27,6.67,9.27L68.8,53.4l4.75,2.13,3-6.84h9.57l3,6.84,4.4-2v1h5.61V39.82l4,7.52h4.16l3.51-7V54.57h5.61V27.28ZM79,43l2.31-5.25L83.64,43Z"/></g><g id="LINE"><rect class="cls-2" x="16.88" y="1.5" width="106.48" height="74.17"/><polygon class="cls-2" points="138.73 91.84 123.35 75.67 16.88 75.67 1.5 91.84 1.5 102.32 138.73 102.32 138.73 91.84"/><line class="cls-2" x1="1.5" y1="91.84" x2="138.73" y2="91.84"/><line class="cls-2" x1="28.82" y1="39.06" x2="43.64" y2="39.06"/><polyline class="cls-2" points="43.79 28.2 29.16 28.2 29.16 51.52 43.98 51.52"/><polyline class="cls-2" points="69.19 51.33 79.53 27.72 89.88 51.33"/><line class="cls-2" x1="73.28" y1="42.81" x2="85.78" y2="42.81"/><line class="cls-2" x1="47.18" y1="26.9" x2="65.04" y2="51.78"/><line class="cls-2" x1="47.18" y1="51.78" x2="65.04" y2="26.9"/><polyline class="cls-3" points="111.76 51.52 111.76 25.37 103.35 42.18 94.53 25.39 94.53 51.52"/></g></g></svg>