<svg xmlns="http://www.w3.org/2000/svg" viewBox="0 0 75 75"><defs><style>.cls-1{fill:#fff;}.cls-2{fill:#666;}</style></defs><g id="레이어_2" data-name="레이어 2"><g id="격리_모드" data-name="격리 모드"><polygon class="cls-1" points="12.75 6.25 5.25 14.75 4.25 62.25 11.25 71.25 47.25 71.25 62.25 71.25 69.75 63.25 70.75 14.75 65.25 4.25 51.75 3.75 12.75 6.25"/><path class="cls-2" d="M57.5,7.5a10,10,0,0,1,10,10v40a10,10,0,0,1-10,10h-40a10,10,0,0,1-10-10v-40a10,10,0,0,1,10-10h40m0-7.5h-40A17.55,17.55,0,0,0,0,17.5v40A17.55,17.55,0,0,0,17.5,75h40A17.56,17.56,0,0,0,75,57.5v-40A17.56,17.56,0,0,0,57.5,0Z"/><path class="cls-2" d="M57.5,7.5a10,10,0,0,1,10,10v40a10,10,0,0,1-10,10h-40a10,10,0,0,1-10-10v-40a10,10,0,0,1,10-10h40m0-7.5h-40A17.55,17.55,0,0,0,0,17.5v40A17.55,17.55,0,0,0,17.5,75h40A17.56,17.56,0,0,0,75,57.5v-40A17.56,17.56,0,0,0,57.5,0Z"/><path class="cls-2" d="M19.21,32.22l0,0a3.65,3.65,0,0,0-4.69.23,3.22,3.22,0,0,0-.25,4.46l0,0L32,53.87l5-4.75Z"/><path class="cls-2" d="M60.78,26.58l0,0a3.22,3.22,0,0,0-.25-4.46,3.66,3.66,0,0,0-4.69-.24l0,0L27.06,49.14l5,4.74Z"/></g></g></svg>