<svg xmlns="http://www.w3.org/2000/svg" viewBox="0 0 54.17 62.04"><defs><style>.cls-1{fill:#fff;}</style></defs><g id="레이어_2" data-name="레이어 2"><g id="Layer_1" data-name="Layer 1"><path class="cls-1" d="M33.11,12.8A6.55,6.55,0,0,0,26.87,18l0,.1-.27,1.47c-.67,3.82-.8,4.51-6.32,6.24C11.15,28.65,8.77,37.84,8.78,43.09A16.39,16.39,0,0,0,12,54.72c3.19,4.1,8.28,6.5,15.12,7.14a7.64,7.64,0,0,0,1.61.18H39.68a7.93,7.93,0,0,0,7.85-6.86,7.94,7.94,0,0,0,4.08-6.93,8.52,8.52,0,0,0-.1-1.24,7.86,7.86,0,0,0,2-5.26,8.22,8.22,0,0,0-1.87-4.68,7.28,7.28,0,0,0,.87-2.64,7.93,7.93,0,0,0-7.92-7.92H41.11C42,22,41.1,18.93,40,17.09a8.5,8.5,0,0,0-5.69-4.18,6.36,6.36,0,0,0-1.22-.11Z"/><path class="cls-1" d="M9,43c0-3.61,2.17-7.8,4.36-11.43H0V55.29H13.72C10.18,50.22,8.8,44.76,9,43Z"/><rect class="cls-1" x="46.81" y="14.89" width="7.06" height="3" transform="translate(-2.59 17.43) rotate(-19.16)"/><rect class="cls-1" x="41.8" y="7.52" width="7.06" height="3" transform="translate(8.86 37.41) rotate(-49.15)"/><rect class="cls-1" x="34.02" y="2.33" width="7.06" height="3" transform="translate(21.65 38.06) rotate(-70.91)"/></g></g></svg>