<svg xmlns="http://www.w3.org/2000/svg" viewBox="0 0 85.71 48"><defs><style>.cls-1{fill:#fff;}</style></defs><g id="레이어_2" data-name="레이어 2"><g id="격리_모드" data-name="격리 모드"><path class="cls-1" d="M83.6,25.3V15.56H82.1V25.3A2.86,2.86,0,0,0,80,28V39.56h1.5V31.69h.61v7.87h1.5V31.69h.6v7.87h1.5V28A2.85,2.85,0,0,0,83.6,25.3Z"/><path class="cls-1" d="M85.45,15.16,42.72,0,0,15.16,19,21.9,16.47,39l1.2.94a43.85,43.85,0,0,0,25,8.08,43.77,43.77,0,0,0,25-8.08L69,39,66.46,21.9ZM42.72,42.75a39.4,39.4,0,0,1-20.6-6.14L24,23.69l18.69,6.63,18.69-6.63,1.92,12.93A39.19,39.19,0,0,1,42.72,42.75ZM55.6,20.18,42.72,24.75,29.85,20.18,19.77,16.61,15.7,15.16l27-9.59,27,9.59-4.08,1.45Z"/></g></g></svg>