<svg xmlns="http://www.w3.org/2000/svg" viewBox="0 0 400 267.4"><defs><style>.cls-1{fill:#fff;}.cls-1,.cls-4,.cls-5,.cls-6,.cls-7{stroke:#000;stroke-width:2px;}.cls-1,.cls-5,.cls-6{stroke-linecap:round;}.cls-1,.cls-4,.cls-7{stroke-miterlimit:10;}.cls-2,.cls-5,.cls-7{fill:#afdae9;}.cls-3{fill:#e7e9ed;}.cls-4{fill:#ffeb02;}.cls-5,.cls-6{stroke-linejoin:round;}.cls-6{fill:#f7454a;}</style></defs><g id="레이어_2" data-name="레이어 2"><g id="icon"><path class="cls-1" d="M55.85,11.29H175A21.23,21.23,0,0,1,196.2,32.53V235.85a0,0,0,0,1,0,0H55.85a0,0,0,0,1,0,0V11.29A0,0,0,0,1,55.85,11.29Z"/><path class="cls-1" d="M194.74,11.29H335.09a0,0,0,0,1,0,0V214.62a21.23,21.23,0,0,1-21.23,21.23H194.74a0,0,0,0,1,0,0V11.29A0,0,0,0,1,194.74,11.29Z" transform="translate(529.82 247.15) rotate(180)"/><path class="cls-2" d="M216.37,74.79h96.5v-41H237a20.6,20.6,0,0,0-20.61,20.6Z"/><rect class="cls-3" x="216.67" y="90.24" width="96.49" height="121.93"/><rect class="cls-3" x="77.78" y="144.63" width="96.49" height="67.54"/><line class="cls-4" x1="78.07" y1="120.07" x2="174.56" y2="120.07"/><line class="cls-4" x1="78.95" y1="95.5" x2="175.44" y2="95.5"/><path class="cls-5" d="M56.14,11.29,24.56,41.12V235.85H56.14S57.89,9.54,56.14,11.29Z"/><path class="cls-5" d="M335.87,11.29l31.58,29.83V235.85H335.87S334.11,9.54,335.87,11.29Z"/><line class="cls-1" x1="40.35" y1="60.42" x2="40.35" y2="235.85"/><path class="cls-6" d="M91.23,11.29V8.79a7.9,7.9,0,0,0-15.79,0v2.5Z"/><path class="cls-6" d="M83.33,1h0a7.79,7.79,0,0,1,7.79,7.79v53a3.46,3.46,0,0,0,5.93,2.42l14.83-15.11,14.84,15.11a3.46,3.46,0,0,0,5.93-2.42V7.92A6.92,6.92,0,0,0,125.73,1H83.33"/><line class="cls-1" x1="350.88" y1="110.02" x2="350.88" y2="234.58"/><line class="cls-7" y1="235.85" x2="400" y2="235.85"/><polyline class="cls-1" points="247.65 250.62 209.86 265.79 217.84 225.85"/><path class="cls-4" d="M247.65,250.62l73-87.93a4.08,4.08,0,0,0-.53-5.73L296.61,137.4a4.08,4.08,0,0,0-5.73.53l-73,87.92Z"/><line class="cls-4" x1="282.82" y1="147.63" x2="312.63" y2="172.39"/><polyline class="cls-4" points="294.61 174.17 256.73 219.76 237.86 242.48"/><line class="cls-4" x1="211.17" y1="251.8" x2="223.37" y2="261.94"/></g></g></svg>