<svg xmlns="http://www.w3.org/2000/svg" viewBox="0 0 91 91"><defs><style>.cls-1,.cls-2{fill:#f3f3f3;}.cls-1,.cls-3,.cls-4{stroke:#999;stroke-linejoin:round;stroke-width:3px;}.cls-3{fill:#fff;}.cls-4{fill:none;}</style></defs><g id="레이어_2" data-name="레이어 2"><g id="격리_모드" data-name="격리 모드"><path class="cls-1" d="M89.5,45.5a44,44,0,1,1-44-44A43.81,43.81,0,0,1,89.5,45.5Z"/><path class="cls-2" d="M36.24,59.31,22.35,58.05a1.44,1.44,0,0,1-1.2-2,92.61,92.61,0,0,0,7-26.27c1.44-11,7.77-17.36,17.36-17.36s15.92,6.37,17.36,17.36a92.5,92.5,0,0,0,7,26.27,1.45,1.45,0,0,1-1.21,2L54.86,59.31,79.19,73.79A44,44,0,1,0,10.9,72.67l.27-2.37Z"/><path class="cls-3" d="M45.5,89.5A43.87,43.87,0,0,0,78.35,74.77c.29-.32.56-.65.84-1L54.86,59.31l13.89-1.26c1-.09,1.09-1,1.21-2,1.27-10.92-4.26-14.16-7-26.27C60.43,19,55.14,12.42,45.55,12.42S29.63,18.79,28.19,29.78c-1.88,14.35-8.36,16.53-7,26.27.13,1,.22,1.91,1.2,2l13.89,1.26-25.07,11-.27,2.37c.57.72,1.14,1.42,1.75,2.1A43.87,43.87,0,0,0,45.5,89.5Z"/><path class="cls-3" d="M81,45.77l-4.9-4.89c-.67-.68-2-.41-3,.6L49.26,65.24l-3.64,11,11-3.65L80.35,48.82C81.36,47.81,81.63,46.44,81,45.77Z"/><path class="cls-4" d="M89.5,45.5a44,44,0,1,1-44-44A43.81,43.81,0,0,1,89.5,45.5Z"/></g></g></svg>