<svg xmlns="http://www.w3.org/2000/svg" viewBox="0 0 147.06 46.15"><defs><style>.cls-1,.cls-2{fill:#323333;}.cls-2,.cls-3{fill-rule:evenodd;}.cls-3{fill:#ea5504;}</style></defs><g id="레이어_2" data-name="레이어 2"><g id="Layer_1" data-name="Layer 1"><path class="cls-1" d="M79.32,36.65H75.66a.49.49,0,0,1-.36-.15.45.45,0,0,1-.16-.34V33a3.37,3.37,0,0,0-.25-1.51H85.62V33H77.18v2.27H85.7v1.42H81.37v1.52h6V39.6H73.3V38.17h6Zm6,7.44a9.83,9.83,0,0,1-.12,1.68H83.27v-3.5h-8V40.84H85.3Z"/><path class="cls-1" d="M97.26,40.41l-1,1.06a7.26,7.26,0,0,1-3.84-3,7,7,0,0,1-1.68,1.86,6.92,6.92,0,0,1-2.16,1.16l-1-1.06a5.12,5.12,0,0,0,2.7-2.13A5.73,5.73,0,0,0,91.42,35V33.24a4.28,4.28,0,0,0-.2-1.47H93.5V35a5.71,5.71,0,0,0,1,3.26A5.1,5.1,0,0,0,97.26,40.41Zm4,3.68a9.83,9.83,0,0,1-.12,1.68H99.19V36.88H95.62V35.45h3.57V32.57a3.54,3.54,0,0,0-.25-1.52h2.28Z"/><path class="cls-1" d="M108.86,33.44v1.74a5.77,5.77,0,0,0,1,3.27,5.13,5.13,0,0,0,2.71,2.12l-1,1.06a6.71,6.71,0,0,1-2.16-1.16,6.57,6.57,0,0,1-1.68-1.87,7.21,7.21,0,0,1-3.84,3l-1-1.06a5.15,5.15,0,0,0,2.7-2.12,5.78,5.78,0,0,0,1.06-3.27V33.44H104V32h7.68v1.43Zm7,10.65a9.83,9.83,0,0,1-.12,1.68h-1.91V32.57a3.54,3.54,0,0,0-.25-1.52h2.28Z"/><path class="cls-1" d="M131.78,44.08H117.7V42.65h6V40.88a3.45,3.45,0,0,0-.24-1.43h2.29v3.2h6Zm-1.68-5.51h-10a.49.49,0,0,1-.36-.15.45.45,0,0,1-.16-.34V33.36a3.37,3.37,0,0,0-.25-1.51H130v1.43h-8.44v3.87h8.52Z"/><path class="cls-1" d="M141.5,40.41l-1,1.06a7.26,7.26,0,0,1-3.84-3A7,7,0,0,1,135,40.31a6.92,6.92,0,0,1-2.16,1.16l-1-1.06a5.12,5.12,0,0,0,2.7-2.13A5.73,5.73,0,0,0,135.66,35V33.24a4.28,4.28,0,0,0-.2-1.47h2.28V35a5.71,5.71,0,0,0,1,3.26A5.1,5.1,0,0,0,141.5,40.41Zm5.56-3.33H145v7a9.83,9.83,0,0,1-.12,1.68H143V32.57a3.54,3.54,0,0,0-.25-1.52H145v4.61h2.08Z"/><path class="cls-1" d="M4.54,23.39v2.06H0v.64c0,1.19.51,1.28,1.29,1.28H3l-.37.28a4.85,4.85,0,0,0-1.92,4c0,3,2.18,5.07,5.43,5.07s5.42-2,5.42-5.07a4.82,4.82,0,0,0-1.92-4l-.37-.28h3V26a.56.56,0,0,0-.61-.57H7.63V24A.56.56,0,0,0,7,23.39ZM3.27,31.66c0-1.95,1.11-3.22,2.82-3.22S8.9,29.71,8.9,31.66s-1.1,3.22-2.81,3.22S3.27,33.62,3.27,31.66Zm12.1-7.85V39.4a.21.21,0,0,0,.07.18.54.54,0,0,0,.39.1,3.86,3.86,0,0,0,2-.72,1.09,1.09,0,0,0,.39-.88V31.25h2.88V29.86a.56.56,0,0,0-.6-.55H18.18V24.45a.64.64,0,0,0-.68-.64ZM4.07,38.93v4.69a2,2,0,0,0,2.22,2H18.77V44.28a.55.55,0,0,0-.59-.57H7.38a.46.46,0,0,1-.51-.52v-3.7a.56.56,0,0,0-.61-.56Z"/><path class="cls-2" d="M51.64,33.34H45.51V38c0,.35.12.54.57.54a21.46,21.46,0,0,0,4.22-.39,19.47,19.47,0,0,0,6.4-2V23.81h2.14a.64.64,0,0,1,.67.64V44.54a1.1,1.1,0,0,1-.39.89,3.78,3.78,0,0,1-2,.72.59.59,0,0,1-.39-.1.24.24,0,0,1-.07-.18V38.22A27.19,27.19,0,0,1,45.45,41c-2.09.07-2.73-.81-2.73-2V31.44h7.5V27.25H43.76c-.67,0-1.13-.28-1.13-1.39v-.53h9.81c.36,0,.6.11.6.55V32.1C53,32.93,52.54,33.34,51.64,33.34Z"/><path class="cls-1" d="M23.89,28.85c0,3.29,2.62,5.42,6.68,5.42s6.68-2.13,6.68-5.42-2.62-5.41-6.68-5.41S23.89,25.56,23.89,28.85Zm3.06,0a3.42,3.42,0,0,1,3.62-3.61,3.42,3.42,0,0,1,3.62,3.61,3.42,3.42,0,0,1-3.62,3.61A3.42,3.42,0,0,1,27,28.85Z"/><path class="cls-1" d="M20.21,36.68c0,1.19.49,1.43,1.29,1.43h7.76v7.76a.24.24,0,0,0,.07.18.57.57,0,0,0,.4.09,3.69,3.69,0,0,0,1.95-.71,1.07,1.07,0,0,0,.39-.89V38.11h8.74V36.75a.56.56,0,0,0-.6-.56h-20Z"/><path class="cls-3" d="M85.78,11.57C84.89,4.91,78.87,0,70.59,0,61.57,0,55,5,55.26,12c.2,4.79,4.35,8,10.4,8.53,1.16.1,2.09.29,2.49,1.47S67.68,25,66.28,26.5c-.89,1-.42,2.11.86,2.05C77.56,28.1,87.2,22.29,85.78,11.57Zm-9.15,8.61c-2.43.78-4-.9-4.93-2.26-1.19-1.77-2.73-2.53-5.22-2.55a6.25,6.25,0,0,1-4.83-1.83,3.2,3.2,0,0,1-.72-2,3.79,3.79,0,0,1,.15-1c.86-3,4.71-5.21,8.83-5.21,6.06,0,9.88,3.32,10.44,7.44C80.8,16,79.53,19.24,76.63,20.18Z"/></g></g></svg>