<svg xmlns="http://www.w3.org/2000/svg" viewBox="0 0 42 68.27"><defs><style>.cls-1{fill:none;}.cls-2{fill:#999899;}.cls-3{fill:#e1460f;}.cls-4{fill:#fff;}</style></defs><g id="레이어_2" data-name="레이어 2"><g id="격리_모드" data-name="격리 모드"><path class="cls-1" d="M36.75,6A.77.77,0,0,0,36,5.25H6A.77.77,0,0,0,5.25,6V56.39h31.5Z"/><path class="cls-2" d="M36,0H6A6,6,0,0,0,0,6V62.27a6,6,0,0,0,6,6H36a6,6,0,0,0,6-6V6A6,6,0,0,0,36,0ZM5.25,6A.77.77,0,0,1,6,5.25H36a.77.77,0,0,1,.75.75V56.39H5.25ZM21,65.29A3.32,3.32,0,0,1,17.74,62a3.26,3.26,0,0,1,6.52,0,3.21,3.21,0,0,1-.17,1,3.07,3.07,0,0,1-.59,1.08A3.22,3.22,0,0,1,21,65.29Z"/><circle class="cls-3" cx="21.12" cy="30.38" r="12"/><polygon class="cls-4" points="19.16 37.49 12.89 29.43 15.26 27.58 19.48 33.02 27.28 25.55 29.36 27.71 19.16 37.49"/></g></g></svg>