<svg xmlns="http://www.w3.org/2000/svg" viewBox="0 0 58.78 45.28"><defs><style>.cls-1{fill:#999899;}.cls-2{fill:#e1460f;}</style></defs><g id="레이어_2" data-name="레이어 2"><g id="격리_모드" data-name="격리 모드"><path class="cls-1" d="M11.33,8.86l1.79,4.49,1.09,2.76H48.94L51,40.92H7.38L5,12,4.74,8.86h6.59m3-4.37H0l.65,7.88L3.37,45.28H55.72L53,11.74H17.17L14.29,4.49Z"/><polygon class="cls-2" points="18.37 9.98 54.58 9.98 56.59 34.26 58.78 8.05 23 8.05 21.39 0 7.1 0 6.87 2.73 15.49 2.73 18.37 9.98"/><path class="cls-2" d="M30.24,32.33l-.11.07a6.77,6.77,0,1,1,2-1.9l-.08.1,3.21,3.47L33.4,35.75Zm-3.76-9.95a4.3,4.3,0,1,0,3.05,1.26A4.3,4.3,0,0,0,26.48,22.38Z"/></g></g></svg>