<svg xmlns="http://www.w3.org/2000/svg" viewBox="0 0 73.7 63.4"><defs><style>.cls-1{fill:#999899;}.cls-2{fill:#e1460f;}</style></defs><g id="레이어_2" data-name="레이어 2"><g id="격리_모드" data-name="격리 모드"><path class="cls-1" d="M63.2,44.94V14.78H14.82V44.94L4.32,63.4H73.7ZM20.07,20H58V44.87H20.07ZM17.88,50.19H60.14l4.53,8H13.35Z"/><rect class="cls-2" x="25.59" y="53.27" width="26.83" height="2.18"/><path class="cls-2" d="M41.26,27.69v2.95a3,3,0,1,1-4.5,0V27.69a5.47,5.47,0,1,0,4.5,0Z"/><rect class="cls-2" x="37.79" y="25.76" width="2.44" height="6.9"/><rect class="cls-2" x="2.33" y="12.86" width="3" height="7.06" transform="translate(-12.91 14.63) rotate(-70.84)"/><rect class="cls-2" x="7.34" y="5.49" width="3" height="7.06" transform="translate(-3.74 7.98) rotate(-40.85)"/><rect class="cls-2" x="15.12" y="0.3" width="3" height="7.06" transform="translate(-0.34 5.65) rotate(-19.09)"/></g></g></svg>